<svg height="512pt" viewBox="-40 0 512 512" width="512pt" xmlns="http://www.w3.org/2000/svg"><path d="m400.601562 313.242188c-8.285156 0-15 6.71875-15 15h-339.535156c0-8.28125-6.714844-15-15-15s-15 6.71875-15 15v88.421874c0 52.570313 42.765625 95.335938 95.332032 95.335938h208.867187c52.566406 0 95.332031-42.765625 95.332031-95.335938v-88.421874c.003906-8.28125-6.714844-15-14.996094-15zm0 0" fill="#6354b2"/><path d="m400.601562 313.242188c-8.285156 0-15 6.71875-15 15h-169.765624v183.757812h104.433593c52.566407 0 95.332031-42.765625 95.332031-95.335938v-88.421874c0-8.28125-6.71875-15-15-15zm0 0" fill="#463b85"/><path d="m380.078125 51.589844c-33.269531-33.269532-77.332031-51.589844-124.078125-51.589844h-80.335938c-46.742187 0-90.808593 18.320312-124.074218 51.589844-33.269532 33.265625-51.589844 77.332031-51.589844 124.074218v120.5c0 30.421876 24.746094 55.167969 55.164062 55.167969h321.335938c30.417969 0 55.164062-24.746093 55.164062-55.167969v-120.5c0-46.742187-18.320312-90.808593-51.585937-124.074218zm0 0" fill="#00d8e0"/><path d="m380.078125 51.589844c-33.269531-33.269532-77.332031-51.589844-124.078125-51.589844h-40.164062v351.332031h160.664062c30.417969 0 55.164062-24.746093 55.164062-55.167969v-120.5c0-46.742187-18.320312-90.808593-51.585937-124.074218zm0 0" fill="#00acb3"/><path d="m218.847656 3.558594c-1.988281-.40625-4.039062-.40625-6.027344 0-81.421874 16.695312-140.519531 89.078125-140.519531 172.105468v175.667969h30v-175.667969c0-67.816406 47.5625-127.070312 113.535157-142.0625 65.96875 14.992188 113.53125 74.246094 113.53125 142.0625v175.667969h30v-175.667969c0-83.027343-59.097657-155.410156-140.519532-172.105468zm0 0" fill="#6354b2"/><path d="m218.847656 3.558594c-.992187-.203125-2.003906-.304688-3.011718-.304688v30.347656c65.96875 14.992188 113.53125 74.246094 113.53125 142.0625v175.667969h30v-175.667969c0-83.027343-59.097657-155.410156-140.519532-172.105468zm0 0" fill="#463b85"/></svg>