<svg height="512pt" viewBox="0 0 512.001 512" width="512pt" xmlns="http://www.w3.org/2000/svg"><path d="m495.894531 95.65625-79.523437-79.523438c-21.507813-21.507812-56.507813-21.507812-78.019532 0l-84.898437 84.902344c-5.855469 5.855469-5.859375 15.355469 0 21.210938 5.855469 5.855468 15.351563 5.855468 21.210937 0l115.105469 115.121094c-5.859375 5.855468-5.859375 15.355468 0 21.214843 2.929688 2.925781 6.769531 4.390625 10.605469 4.390625 3.839844 0 7.675781-1.464844 10.605469-4.390625l84.910156-84.910156c10.386719-10.390625 16.109375-24.242187 16.109375-39.011719 0-14.765625-5.71875-28.621094-16.105469-39.003906zm0 0" fill="#ffe470"/><path d="m495.894531 95.65625-39.765625-39.765625-123.914062 123.914063 57.554687 57.5625c-5.859375 5.855468-5.859375 15.355468 0 21.210937 2.929688 2.929687 6.769531 4.394531 10.605469 4.394531 3.839844 0 7.675781-1.464844 10.605469-4.394531l84.910156-84.910156c10.386719-10.386719 16.109375-24.242188 16.109375-39.007813s-5.71875-28.621094-16.105469-39.003906zm0 0" fill="#ffb64c"/><path d="m258.578125 389.769531c-5.859375-5.855469-15.355469-5.855469-21.214844 0l-115.121093-115.109375c5.859374-5.855468 5.859374-15.351562 0-21.210937-5.855469-5.855469-15.355469-5.855469-21.210938 0l-84.902344 84.90625c-21.503906 21.507812-21.503906 56.503906 0 78.011719l79.523438 79.523437c10.390625 10.386719 24.242187 16.109375 39.007812 16.109375 14.769532 0 28.621094-5.722656 39.007813-16.109375l84.910156-84.910156c5.855469-5.855469 5.855469-15.355469 0-21.210938zm0 0" fill="#ffe470"/><path d="m95.652344 495.890625c10.390625 10.386719 24.242187 16.109375 39.007812 16.109375 14.769532 0 28.621094-5.722656 39.007813-16.109375l84.910156-84.910156c5.855469-5.855469 5.855469-15.355469 0-21.210938-5.859375-5.855469-15.355469-5.855469-21.214844 0l-57.558593-57.554687-123.914063 123.914062zm0 0" fill="#ffb64c"/><path d="m400.605469 256.007812c0 79.855469-64.734375 144.597657-144.597657 144.59375-79.851562 0-144.59375-64.734374-144.59375-144.589843.003907-79.855469 64.742188-144.597657 144.59375-144.597657 79.863282 0 144.597657 64.742188 144.597657 144.59375zm0 0" fill="#e7f0ef"/><path d="m358.253906 153.765625-204.488281 204.484375c26.167969 26.167969 62.316406 42.351562 102.242187 42.351562 79.863282.003907 144.597657-64.734374 144.597657-144.59375 0-39.925781-16.183594-76.074218-42.351563-102.242187zm0 0" fill="#c5e1e6"/><path d="m256.007812 415.601562c-87.996093 0-159.589843-71.59375-159.59375-159.589843.003907-88.003907 71.597657-159.59375 159.59375-159.597657 88.003907.003907 159.59375 71.597657 159.597657 159.597657 0 88-71.597657 159.589843-159.597657 159.589843zm.003907-289.183593c-71.457031-.003907-129.59375 58.132812-129.597657 129.59375.003907 71.457031 58.136719 129.59375 129.59375 129.59375 71.460938 0 129.597657-58.136719 129.597657-129.59375 0-71.460938-58.136719-129.59375-129.59375-129.59375zm0 0" fill="#ff9f00"/><path d="m301.457031 316.449219c-3.839843 0-7.679687-1.464844-10.605469-4.394531l-45.445312-45.4375c-2.8125-2.8125-4.394531-6.628907-4.394531-10.605469 0-3.980469 1.578125-7.792969 4.394531-10.609375l45.445312-45.441406c5.855469-5.855469 15.355469-5.855469 21.210938 0 5.859375 5.859374 5.855469 15.355468 0 21.214843l-34.839844 34.835938 34.839844 34.832031c5.855469 5.855469 5.855469 15.351562 0 21.210938-2.929688 2.929687-6.769531 4.394531-10.605469 4.394531zm0 0" fill="#463b85"/><path d="m310.707031 43.78125 21.214844-21.210938 157.535156 157.539063-21.210937 21.210937zm0 0" fill="#ff9f00"/><path d="m22.554688 331.925781 21.214843-21.210937 157.535157 157.535156-21.210938 21.210938zm0 0" fill="#ff9f00"/><path d="m312.0625 199.960938-66.660156 66.65625h.003906l45.441406 45.4375c2.929688 2.929687 6.769532 4.394531 10.605469 4.394531 3.839844 0 7.679687-1.464844 10.605469-4.394531 5.859375-5.859376 5.859375-15.355469 0-21.210938l-34.835938-34.835938 34.839844-34.835937c5.855469-5.855469 5.859375-15.351563 0-21.210937zm0 0" fill="#2b2256"/><g fill="#ff641a"><path d="m385.605469 256.011719c0 71.457031-58.136719 129.59375-129.597657 129.59375-35.726562 0-68.125-14.535157-91.59375-38.003907l-21.199218 21.203126c28.894531 28.898437 68.792968 46.796874 112.792968 46.796874 88 0 159.597657-71.589843 159.59375-159.589843 0-44-17.898437-83.898438-46.796874-112.796875l-21.203126 21.199218c23.46875 23.46875 38.003907 55.867188 38.003907 91.597657zm0 0"/><path d="m389.476562 122.550781 21.210938-21.210937 78.769531 78.769531-21.210937 21.210937zm0 0"/><path d="m101.328125 410.683594 21.214844-21.210938 78.765625 78.769532-21.210938 21.210937zm0 0"/></g></svg>