<svg height="512pt" viewBox="0 0 512.001 512" width="512pt" xmlns="http://www.w3.org/2000/svg"><g fill="#ffe470"><path d="m239.847656 390.351562-45.328125-28.304687-1.851562-53.410156c-.179688-5.171875-3.011719-9.882813-7.492188-12.472657-4.480469-2.585937-9.976562-2.679687-14.542969-.25l-47.179687 25.101563-47.179687-25.101563c-4.566407-2.429687-10.0625-2.335937-14.546876.25-4.480468 2.585938-7.3125 7.300782-7.492187 12.472657l-1.851563 53.410156-45.328124 28.304687c-4.386719 2.738282-7.054688 7.550782-7.054688 12.722657s2.664062 9.980469 7.054688 12.722656l45.328124 28.308594 1.851563 53.410156c.179687 5.171875 3.011719 9.886719 7.492187 12.472656 4.480469 2.585938 9.976563 2.679688 14.546876.25l47.175781-25.101562 47.179687 25.101562c2.207032 1.171875 4.628906 1.757813 7.046875 1.757813 2.59375 0 5.183594-.671875 7.5-2.007813 4.480469-2.589843 7.3125-7.300781 7.492188-12.472656l1.851562-53.410156 45.328125-28.308594c4.386719-2.742187 7.054688-7.550781 7.054688-12.722656-.003906-5.171875-2.667969-9.984375-7.054688-12.722657zm0 0"/><path d="m504.945312 390.351562-45.324218-28.304687-1.851563-53.410156c-.179687-5.171875-3.011719-9.882813-7.492187-12.472657-4.480469-2.585937-9.976563-2.679687-14.546875-.25l-47.179688 25.101563-47.179687-25.101563c-4.566406-2.429687-10.0625-2.335937-14.546875.25-4.476563 2.589844-7.308594 7.300782-7.488281 12.472657l-1.851563 53.410156-45.328125 28.304687c-4.386719 2.738282-7.054688 7.550782-7.054688 12.722657 0 5.175781 2.664063 9.980469 7.054688 12.722656l45.328125 28.308594 1.851563 53.410156c.179687 5.171875 3.011718 9.886719 7.492187 12.472656 4.480469 2.589844 9.980469 2.679688 14.542969.25l47.179687-25.101562 47.179688 25.101562c2.207031 1.175781 4.628906 1.757813 7.046875 1.757813 2.59375 0 5.183594-.667969 7.5-2.007813 4.480468-2.585937 7.3125-7.300781 7.492187-12.472656l1.851563-53.410156 45.328125-28.308594c4.386719-2.738281 7.050781-7.546875 7.050781-12.722656 0-5.171875-2.664062-9.984375-7.054688-12.722657zm0 0"/><path d="m268.726562 317.101562 39.898438-63.882812 75.273438-2.605469c5.171874-.179687 9.882812-3.011719 12.46875-7.492187 2.589843-4.480469 2.6875-9.980469.253906-14.546875l-35.378906-66.492188 35.378906-66.496093c2.433594-4.570313 2.335937-10.066407-.253906-14.546876-2.585938-4.480468-7.296876-7.3125-12.46875-7.492187l-75.273438-2.609375-39.898438-63.882812c-2.742187-4.386719-7.550781-7.054688-12.722656-7.054688-5.175781 0-9.984375 2.667969-12.726562 7.054688l-39.894532 63.882812-75.277343 2.609375c-5.171875.179687-9.886719 3.011719-12.472657 7.492187-2.585937 4.480469-2.683593 9.976563-.25 14.546876l35.378907 66.496093-35.378907 66.492188c-2.433593 4.566406-2.335937 10.066406.25 14.546875 2.585938 4.480468 7.300782 7.3125 12.472657 7.492187l75.277343 2.605469 39.898438 63.882812c2.738281 4.386719 7.546875 7.054688 12.722656 7.054688 5.171875 0 9.980469-2.667969 12.722656-7.054688zm0 0"/></g><path d="m239.847656 390.351562-45.328125-28.304687-1.851562-53.410156c-.179688-5.171875-3.011719-9.882813-7.492188-12.472657-4.480469-2.585937-9.976562-2.679687-14.542969-.25l-47.179687 25.101563-.003906-.003906v164.125h.003906l47.179687 25.101562c2.203126 1.171875 4.625 1.757813 7.042969 1.757813 2.59375 0 5.183594-.671875 7.5-2.007813 4.480469-2.589843 7.3125-7.300781 7.492188-12.472656l1.851562-53.410156 45.328125-28.308594c4.386719-2.742187 7.054688-7.550781 7.054688-12.722656-.003906-5.171875-2.667969-9.984375-7.054688-12.722657zm0 0" fill="#ffb64c"/><path d="m504.945312 390.351562-45.324218-28.304687-1.851563-53.410156c-.179687-5.171875-3.011719-9.882813-7.492187-12.472657-4.480469-2.585937-9.976563-2.679687-14.546875-.25l-47.179688 25.101563v164.121094l47.179688 25.101562c2.207031 1.171875 4.628906 1.757813 7.046875 1.757813 2.59375 0 5.183594-.671875 7.5-2.007813 4.480468-2.589843 7.3125-7.300781 7.492187-12.472656l1.851563-53.410156 45.328125-28.308594c4.386719-2.742187 7.050781-7.550781 7.050781-12.722656s-2.664062-9.984375-7.054688-12.722657zm0 0" fill="#ffb64c"/><path d="m268.726562 317.101562 39.898438-63.882812 75.273438-2.605469c5.171874-.179687 9.882812-3.011719 12.46875-7.492187 2.589843-4.480469 2.6875-9.980469.253906-14.546875l-35.378906-66.492188 35.378906-66.496093c2.433594-4.570313 2.335937-10.066407-.253906-14.546876-2.585938-4.480468-7.296876-7.3125-12.46875-7.492187l-75.273438-2.609375-39.898438-63.882812c-2.742187-4.386719-7.550781-7.054688-12.722656-7.054688v324.15625c5.171875 0 9.980469-2.667969 12.722656-7.054688zm0 0" fill="#ffb64c"/></svg>